<svg xmlns="http://www.w3.org/2000/svg" xmlns:xlink="http://www.w3.org/1999/xlink" width="500" zoomAndPan="magnify" viewBox="0 0 375 374.999991" height="500" preserveAspectRatio="xMidYMid meet" version="1.0"><defs><clipPath id="c5047db8ce"><path d="M 0 0 L 375 0 L 375 122.25 L 0 122.25 Z M 0 0 " clip-rule="nonzero"/></clipPath></defs><g clip-path="url(#c5047db8ce)"><path fill="#d79922" d="M 141.101562 32.246094 L 94.726562 4.253906 L 48.347656 32.246094 L 0.941406 3.6875 L 2.8125 0.566406 L 48.28125 27.992188 L 94.699219 0 L 141.074219 27.992188 L 187.507812 0 L 233.886719 27.992188 L 280.328125 0 L 326.707031 27.992188 L 372.175781 0.566406 L 374.058594 3.6875 L 326.746094 32.246094 L 280.367188 4.253906 L 233.988281 32.246094 L 187.609375 4.253906 Z M 280.328125 49.273438 L 326.707031 77.265625 L 374.070312 48.707031 L 372.222656 45.546875 L 326.753906 72.976562 L 280.375 44.984375 L 233.996094 72.976562 L 187.617188 44.984375 L 141.238281 72.976562 L 94.859375 44.984375 L 48.484375 72.976562 L 2.8125 45.546875 L 0.941406 48.707031 L 48.28125 77.265625 L 94.660156 49.273438 L 141.039062 77.265625 L 187.417969 49.273438 L 233.796875 77.265625 Z M 280.328125 94.292969 L 326.707031 122.285156 L 374.070312 93.726562 L 372.1875 90.601562 L 326.71875 118.03125 L 280.339844 90.039062 L 233.960938 118.03125 L 187.582031 90.039062 L 141.203125 118.03125 L 94.824219 90.039062 L 48.445312 118.03125 L 2.976562 90.601562 L 0.941406 93.726562 L 48.28125 122.285156 L 94.660156 94.292969 L 141.039062 122.285156 L 187.417969 94.292969 L 233.796875 122.285156 Z M 280.328125 94.292969 " fill-opacity="1" fill-rule="nonzero"/></g></svg>